<svg id="evaw338sui71" xmlns="http://www.w3.org/2000/svg" xmlns:xlink="http://www.w3.org/1999/xlink" viewBox="0 0 24 35" shape-rendering="geometricPrecision" text-rendering="geometricPrecision"><style><![CDATA[#evaw338sui74_to {animation: evaw338sui74_to__to 3000ms linear 1 normal forwards}@keyframes evaw338sui74_to__to { 0% {transform: translate(229.588884px,212.506831px);animation-timing-function: cubic-bezier(0.470000,0,0.745000,0.715000)} 33.333333% {transform: translate(230.024190px,222.878268px);animation-timing-function: cubic-bezier(0.470000,0,0.745000,0.715000)} 41.333333% {transform: translate(230.024190px,222.878268px)} 41.666667% {transform: translate(230.024190px,222.878268px)} 42.333333% {transform: translate(230.024190px,210.505430px)} 43.333333% {transform: translate(230.024190px,210.507937px);animation-timing-function: cubic-bezier(0.470000,0,0.745000,0.715000)} 75.666667% {transform: translate(230.024190px,222.878268px);animation-timing-function: cubic-bezier(0.470000,0,0.745000,0.715000)} 83.666667% {transform: translate(230.024190px,222.878268px)} 84% {transform: translate(230.024190px,210.505430px)} 100% {transform: translate(230.024190px,210.505430px)} }#evaw338sui74 {animation: evaw338sui74_c_o 3000ms linear 1 normal forwards}@keyframes evaw338sui74_c_o { 0% {opacity: 1} 33.333333% {opacity: 1} 41.333333% {opacity: 1} 41.666667% {opacity: 0} 42.333333% {opacity: 1} 43.333333% {opacity: 1} 75.666667% {opacity: 1} 83.666667% {opacity: 1} 84% {opacity: 1} 100% {opacity: 1} }]]></style><g id="evaw338sui72" transform="matrix(1 0 0 1 -220.04200000000000 -192.63900756999999)"><g id="evaw338sui73"><g id="evaw338sui74_to" transform="translate(229.588884,212.506831)"><path id="evaw338sui74" d="M234.409000,218.510000C234.456849,219.478065,233.910410,220.377707,233.029287,220.781518C232.148165,221.185329,231.109955,221.011919,230.407896,220.343673C229.705837,219.675426,229.481433,218.647033,229.841295,217.747066C230.201157,216.847100,231.072753,216.256955,232.042000,216.257000C233.317499,216.226242,234.376812,217.234536,234.409000,218.510000Z" transform="translate(-230.024022,-218.995608)" fill="rgb(35,31,32)" stroke="none" stroke-width="1" stroke-opacity="0.97"/></g><path id="evaw338sui75" d="M232.042000,227.634000L220.042000,220.373000L220.042000,199.900000L232.042000,192.639000L244.042000,199.900000L244.042000,220.377000ZM221.200000,219.769000L232.045000,226.332000L242.890000,219.769000L242.890000,200.500000L232.045000,193.938000L221.200000,200.500000Z" fill="rgb(35,31,32)" stroke="none" stroke-width="1"/></g></g></svg>